<mxfile host="app.diagrams.net" modified="2023-07-09T08:21:06.049Z" agent="Mozilla/5.0 (Macintosh; Intel Mac OS X 10_15_7) AppleWebKit/537.36 (KHTML, like Gecko) Chrome/114.0.0.0 Safari/537.36" version="21.6.1" etag="MJWrr29U4F8P7YY7Ljs3" type="github">
  <diagram name="페이지-1" id="tGCOuptwTByUr70m_xDe">
    <mxGraphModel>
      <root>
        <mxCell id="0" />
        <mxCell id="1" parent="0" />
      </root>
    </mxGraphModel>
  </diagram>
</mxfile>
